<?xml version="1.0" encoding="UTF-8"?>
<svg version="1.1" xmlns="http://www.w3.org/2000/svg" width="950" height="820">
<path d="M0 0 C5.99968513 4.34142283 9.23211538 9.85523553 11 17 C12.20843981 25.60857635 10.4791539 33.83457095 5.59765625 41.08203125 C0.40727052 47.31303221 -5.95625773 52.61248176 -12 58 C-12.71414063 58.64066406 -13.42828125 59.28132813 -14.1640625 59.94140625 C-17.87986062 63.23669224 -21.6976973 66.38085217 -25.5625 69.5 C-29.38479534 72.60627307 -32.92483769 75.80854752 -36.3515625 79.33984375 C-40.39567091 83.41270174 -44.86988937 87.03664701 -49.234375 90.7578125 C-55.7739342 96.3383088 -62.23469227 101.97291334 -68.5703125 107.78515625 C-70.60515415 109.64006817 -72.66321247 111.45428798 -74.75 113.25 C-77.40808148 115.55110773 -79.99000753 117.91980409 -82.546875 120.33203125 C-83.1955957 120.94336914 -83.84431641 121.55470703 -84.51269531 122.18457031 C-85.80198463 123.40290121 -87.08800091 124.62470871 -88.37011719 125.85058594 C-92.12485881 129.39904487 -95.98227692 132.593442 -100.18408203 135.60180664 C-102.08434624 137.06494366 -103.71485289 138.64685875 -105.375 140.375 C-107.99195485 143.08056505 -110.72141298 145.43200536 -113.6875 147.75 C-118.7644014 151.72961069 -123.47076127 156.02703807 -128.1953125 160.41015625 C-130.43532083 162.4785762 -132.69466815 164.50555315 -135 166.5 C-140.44028776 171.21414766 -145.70721932 176.12182047 -151 181 C-147.69359298 183.20427134 -144.24204284 184.93243923 -140.6875 186.6875 C-139.24079722 187.40477005 -137.79418431 188.1222214 -136.34765625 188.83984375 C-135.61949707 189.20062012 -134.89133789 189.56139648 -134.14111328 189.93310547 C-132.14972978 190.9253912 -130.16531233 191.92998539 -128.18359375 192.94140625 C-123.20452235 195.47193321 -118.31146759 197.95527874 -113.0625 199.875 C-108.72962821 201.52360487 -104.91878251 203.80503045 -101 206.25 C-93.37036735 210.98987149 -85.40024348 214.54423717 -77.15625 218.07226562 C-67.22641706 222.34461223 -57.75768618 227.17385072 -48.35742188 232.51025391 C-43.74481221 235.10559694 -39.18932916 237.27414462 -34.20703125 239.08203125 C-31.67814021 240.13387089 -29.50072559 241.47282606 -27.1875 242.9375 C-23.51070382 245.23621238 -19.95704804 246.85282807 -15.875 248.3125 C-10.79681847 250.17253161 -6.2743291 252.41004611 -1.625 255.125 C7.73644774 260.58064756 17.51120181 265.09813533 27.30419922 269.71728516 C32.35736717 272.1216815 37.35335174 274.63656004 42.34375 277.16796875 C44.82457879 278.42365591 47.32276987 279.62786073 49.84375 280.80078125 C58.62382561 284.92301595 65.2446362 288.66779987 69.4375 297.6875 C72.37252999 306.0605942 72.11600029 314.63144267 68.36328125 322.69140625 C60.8084191 335.48488341 45.50753104 339.57741317 32.30078125 344.40625 C27.5014583 346.16894703 22.74816153 348.04184959 18 349.9375 C16.72987061 350.44458496 16.72987061 350.44458496 15.43408203 350.96191406 C10.13365792 353.09594369 4.90044901 355.34915488 -0.3125 357.6875 C-5.20414906 359.87805276 -10.07069434 361.74894354 -15.1875 363.375 C-21.28061462 365.32530656 -27.08026201 367.68068232 -32.9375 370.25 C-41.62606919 374.05916819 -50.4147573 377.47096396 -59.31347656 380.75585938 C-66.02297339 383.23891869 -72.65668809 385.85436348 -79.25610352 388.61547852 C-83.37453354 390.33758437 -87.51198062 391.98162427 -91.6875 393.5625 C-96.11642216 395.24395184 -100.4694246 397.04537009 -104.8125 398.9375 C-109.74417317 401.07909951 -114.70213064 403.03365447 -119.75 404.875 C-125.65907646 407.0346259 -131.39724792 409.46118387 -137.125 412.0625 C-143.47671387 414.94425244 -149.84816187 417.45768713 -156.44921875 419.7265625 C-160.48180804 421.17279364 -164.42369928 422.78476459 -168.375 424.4375 C-173.96371101 426.77218481 -179.57254745 429.01472359 -185.25 431.125 C-185.91008057 431.37040527 -186.57016113 431.61581055 -187.25024414 431.86865234 C-188.54540523 432.34924772 -189.84073035 432.8294013 -191.13623047 433.30908203 C-197.93331521 435.82882919 -204.69186883 438.34087866 -211.25 441.4375 C-217.34570412 444.275617 -223.65524754 446.40108667 -230 448.6015625 C-236.66739202 450.91783181 -243.12488741 453.60648395 -249.57641602 456.46728516 C-250.59046509 456.916604 -250.59046509 456.916604 -251.625 457.375 C-252.64775024 457.82818604 -252.64775024 457.82818604 -253.69116211 458.29052734 C-259.10843337 460.66600174 -264.5975894 462.76975398 -270.15014648 464.8046875 C-274.39109159 466.3684746 -278.54528359 468.06064074 -282.6875 469.875 C-289.43785492 472.81864792 -296.29307191 475.43463856 -303.18139648 478.03637695 C-312.22520008 481.45361417 -321.20776626 485.00633974 -330.13671875 488.71484375 C-337.74684571 491.87487821 -345.37332144 494.93280138 -353.10107422 497.79418945 C-361.2600675 500.82163205 -369.36480803 504.0057895 -377.359375 507.4453125 C-381.60973814 509.26038174 -385.8935627 510.97872275 -390.1875 512.6875 C-391.97266554 513.3997163 -393.75782152 514.11195656 -395.54296875 514.82421875 C-396.90301025 515.3663501 -396.90301025 515.3663501 -398.29052734 515.91943359 C-402.52838645 517.60953671 -406.76413733 519.304901 -411 521 C-412.65363458 521.66148646 -414.30728047 522.32294467 -415.9609375 522.984375 C-416.78432617 523.31373047 -417.60771484 523.64308594 -418.45605469 523.98242188 C-436.3515625 531.140625 -436.3515625 531.140625 -438.6418457 532.05444336 C-440.30653503 532.72193914 -441.96892599 533.39518075 -443.62963867 534.07250977 C-444.50080322 534.42627686 -445.37196777 534.78004395 -446.26953125 535.14453125 C-447.05432861 535.46526611 -447.83912598 535.78600098 -448.64770508 536.11645508 C-451.09230811 537.03467182 -453.54260567 537.75577331 -456.0625 538.4375 C-459.54402965 539.4244757 -462.34873157 540.682858 -465.4375 542.5625 C-474.09448502 547.60481408 -486.04490838 548.65928614 -495.734375 546.34765625 C-502.68915767 543.89240722 -507.6632543 540.12570828 -511.31640625 533.67578125 C-514.84627261 525.84119982 -515.28929034 518.80653153 -512.25 510.75 C-509.15345016 503.42641387 -504.54865081 498.32114024 -498.75 493.0625 C-498.07686768 492.4435083 -497.40373535 491.8245166 -496.71020508 491.18676758 C-492.81522379 487.61585778 -488.89073755 484.08075824 -484.8828125 480.63671875 C-482.57369617 478.62941638 -480.3221886 476.56274326 -478.0625 474.5 C-474.94774529 471.68052785 -471.79378232 469.02598251 -468.4375 466.5 C-464.38667433 463.42108872 -460.92961424 459.96604326 -457.38671875 456.32421875 C-453.99822 453.02445319 -450.3154483 450.13985864 -446.625 447.1875 C-444.24662268 445.2055189 -442.08964199 443.15906592 -439.9375 440.9375 C-437.28706914 438.20723689 -434.57790155 435.81993015 -431.5625 433.5 C-425.79529673 429.0094377 -420.57797698 423.97364582 -415.32836914 418.8984375 C-411.10378517 414.84870147 -406.7419352 411.20219609 -402.08666992 407.65893555 C-399.12522771 405.30454222 -396.53910382 402.67591191 -393.9375 399.9375 C-390.1573611 396.05204141 -386.34859351 392.5971584 -381.9140625 389.4765625 C-379.63213406 387.7162177 -377.69652754 385.75331984 -375.6875 383.6875 C-371.64919611 379.54529464 -367.34238033 375.9388062 -362.83203125 372.32421875 C-358.93676215 369.1274117 -355.24303053 365.73093104 -351.53515625 362.3203125 C-349.46674242 360.42718797 -347.37594124 358.57748296 -345.25 356.75 C-341.97131488 353.90892172 -338.81190995 350.95472218 -335.65551758 347.97973633 C-330.73997507 343.34713784 -325.85113222 338.77263471 -320.5625 334.5625 C-315.00967316 330.13355865 -309.88429715 325.29723605 -304.74438477 320.40258789 C-301.04626634 316.88619974 -297.29715368 313.49460821 -293.35644531 310.25073242 C-291.86354019 309.02241596 -291.86354019 309.02241596 -291 307 C-291.83917969 306.74992187 -292.67835938 306.49984375 -293.54296875 306.2421875 C-297.34859796 304.87474107 -300.78779997 303.0784102 -304.3125 301.125 C-308.36324308 298.91867757 -312.37544299 296.74297042 -316.625 294.9375 C-323.98422687 291.79348247 -331.16466627 287.95640181 -337.8125 283.5 C-342.24616513 280.63502571 -347.08685517 278.72097765 -351.92919922 276.6628418 C-356.88734505 274.53866531 -361.60553346 272.16340549 -366.27734375 269.45703125 C-368.51122241 268.26156964 -370.71085985 267.23265172 -373.03125 266.2265625 C-379.01218648 263.60560525 -384.7752928 260.58206249 -390.5625 257.5625 C-391.64724609 257.00240234 -392.73199219 256.44230469 -393.84960938 255.86523438 C-398.38865534 253.50338714 -402.8765484 251.14770479 -407.1796875 248.375 C-411.44629908 245.63356479 -415.9568649 243.54366833 -420.5625 241.4375 C-429.66561301 237.25108027 -429.66561301 237.25108027 -433.78515625 234.84375 C-436.47781916 233.29947674 -438.97301921 232.12265123 -441.875 231.0625 C-446.86476887 229.12245371 -451.41999635 226.76407238 -456 224 C-456.77601563 223.5359375 -457.55203125 223.071875 -458.3515625 222.59375 C-465.26478761 218.24697301 -470.95221439 213.26507581 -473.52734375 205.29296875 C-475.52687959 195.59274118 -473.99076433 187.1833645 -468.65625 178.91796875 C-462.06398289 171.03523426 -451.25112992 167.77878592 -442 164 C-441.31953613 163.71914551 -440.63907227 163.43829102 -439.93798828 163.14892578 C-436.32463621 161.66229489 -432.69354084 160.22428287 -429.05322266 158.80517578 C-424.92205112 157.18512777 -420.80638043 155.52598457 -416.6875 153.875 C-415.06646171 153.22642387 -413.4453693 152.57798297 -411.82421875 151.9296875 C-409.32634778 150.93059028 -406.82852205 149.93138059 -404.33081055 148.93188477 C-403.01850464 148.40679321 -403.01850464 148.40679321 -401.6796875 147.87109375 C-400.89190918 147.5558374 -400.10413086 147.24058105 -399.29248047 146.91577148 C-397.00863098 146.0034478 -394.72327348 145.09499085 -392.4375 144.1875 C-389.30796972 142.93961822 -386.19073256 141.66588105 -383.08203125 140.3671875 C-376.29050911 137.5354444 -369.51852249 134.77964463 -362.5625 132.375 C-358.54250186 130.97554672 -354.77026484 129.47402484 -351 127.5 C-346.14479268 124.95829503 -341.13801091 123.23148748 -335.96484375 121.4453125 C-331.43883485 119.83815973 -327.03873952 117.95245519 -322.625 116.0625 C-316.79498973 113.56872833 -310.95502383 111.17897859 -305 109 C-298.19666006 106.50810394 -291.53437045 103.73464186 -284.86865234 100.8972168 C-277.33765348 97.6983515 -269.72145537 94.75958748 -262.0546875 91.90234375 C-255.17712301 89.3078661 -248.43129954 86.48513519 -241.6875 83.5625 C-234.20406025 80.32252288 -226.69157639 77.27935895 -219.03125 74.484375 C-208.61983552 70.67280835 -198.40860287 66.50177276 -188.25 62.0625 C-179.84573793 58.41168477 -171.440561 54.93594043 -162.75146484 52.01586914 C-157.3215971 50.17390874 -152.11549974 47.95130821 -146.88476562 45.60864258 C-141.75932902 43.31451442 -136.58310444 41.19118648 -131.3605957 39.12890625 C-127.57342166 37.63263995 -123.81174089 36.08874715 -120.0625 34.5 C-115.45740942 32.56524382 -110.80948363 30.79214692 -106.125 29.0625 C-99.77554603 26.71652004 -93.56136665 24.13644071 -87.35546875 21.4296875 C-84.13733113 20.05851361 -80.89855087 18.7946114 -77.625 17.5625 C-72.63150958 15.67471704 -67.75097152 13.60491692 -62.875 11.4375 C-57.52750175 9.06216884 -52.17179039 6.89565541 -46.64453125 4.96484375 C-43.69456583 3.8885639 -40.82399716 2.67352229 -37.9375 1.4375 C-25.24437625 -3.85538558 -12.71345459 -7.42536256 0 0 Z M-19 24 C-20.91755902 24.72681672 -22.83398398 25.45662535 -24.75 26.1875 C-25.81734375 26.59355469 -26.8846875 26.99960938 -27.984375 27.41796875 C-32.29030045 29.09026081 -36.54418436 30.88522839 -40.80517578 32.66821289 C-46.04463764 34.85232296 -51.30396453 36.98731398 -56.5625 39.125 C-58.95055233 40.09627673 -61.33857225 41.06763314 -63.7265625 42.0390625 C-64.93473633 42.53051758 -66.14291016 43.02197266 -67.38769531 43.52832031 C-70.85124604 44.93939654 -74.31271557 46.35543974 -77.7734375 47.7734375 C-89.10844872 52.41354427 -100.46480886 56.98518968 -111.875 61.4375 C-121.42108075 65.16385305 -130.91431216 68.999432 -140.375 72.9375 C-150.24509853 77.04555555 -160.13467406 81.09646805 -170.0625 85.0625 C-170.99983978 85.43702805 -170.99983978 85.43702805 -171.95611572 85.81912231 C-179.73739468 88.92558439 -187.53282372 91.9947395 -195.33740234 95.04223633 C-208.68778722 100.25612609 -221.95713575 105.6433603 -235.19238281 111.14208984 C-242.38841586 114.12817741 -249.6027695 117.03414431 -256.88452148 119.80712891 C-262.13239806 121.81646399 -267.34647454 123.90967045 -272.5625 126 C-273.59568359 126.4125 -274.62886719 126.825 -275.69335938 127.25 C-281.84387903 129.71174645 -287.9705023 132.22490017 -294.08227539 134.78125 C-305.47485841 139.53999608 -316.8905234 144.25065233 -328.43554688 148.62817383 C-332.65457919 150.25192332 -336.85387599 151.92159545 -341.05078125 153.6015625 C-341.9221019 153.95026901 -342.79342255 154.29897552 -343.69114685 154.6582489 C-352.73618322 158.28497142 -361.75634253 161.97180332 -370.77282715 165.66882324 C-373.64014039 166.84433008 -376.50798529 168.01853127 -379.37597656 169.19238281 C-386.38090574 172.0595873 -393.38579778 174.92688134 -400.38818359 177.80029297 C-424.08743133 187.52519719 -424.08743133 187.52519719 -435.765625 191.78125 C-439.22975465 193.08657421 -442.60774492 194.51911707 -446 196 C-446 196.66 -446 197.32 -446 198 C-444.3749349 198.81253255 -442.74986191 199.62504935 -441.12475586 200.4375 C-439.68793988 201.15599053 -438.25125726 201.87474779 -436.81469727 202.59375 C-433.1802436 204.41235815 -429.54422265 206.22755178 -425.90234375 208.03125 C-418.75360332 211.57753086 -411.66929529 215.21438844 -404.64428711 219 C-400.13715338 221.41923991 -395.58399483 223.73016891 -391 226 C-385.78517529 228.5821956 -380.62268216 231.23950715 -375.5 234 C-368.41112778 237.81601007 -361.22998318 241.42708451 -354.01611328 245 C-350.67314017 246.65812762 -347.33682707 248.32954784 -344 250 C-340.01498741 251.99493618 -336.02879434 253.98722015 -332.03515625 255.96484375 C-324.41361421 259.7456087 -316.86527613 263.63941626 -309.35791016 267.64208984 C-301.97420398 271.56779688 -294.49454284 275.29155083 -287 279 C-284.35284887 280.30986314 -281.70678045 281.6218504 -279.0625 282.9375 C-278.08168457 283.42549072 -278.08168457 283.42549072 -277.08105469 283.92333984 C-272.07218883 286.43022449 -267.12607424 289.04532436 -262.1875 291.6875 C-255.89954644 295.05109017 -249.55543361 298.18243782 -243 301 C-244.54762019 305.08347979 -247.22547982 306.99849733 -250.625 309.625 C-252.45205916 311.03873986 -254.2538575 312.48745515 -256 314 C-256 314.66 -256 315.32 -256 316 C-256.81210937 316.33451172 -256.81210937 316.33451172 -257.640625 316.67578125 C-260.74975631 318.42080694 -263.1785332 320.75313457 -265.75 323.1875 C-266.82488262 324.18948716 -267.90040352 325.19079005 -268.9765625 326.19140625 C-269.49637695 326.67625488 -270.01619141 327.16110352 -270.55175781 327.66064453 C-272.98934987 329.91496517 -275.49975473 332.08277485 -278.0078125 334.2578125 C-280.36020635 336.31500399 -282.68034966 338.40596915 -285 340.5 C-287.98062721 343.18983431 -290.97245233 345.86310364 -294 348.5 C-298.71701284 352.61081039 -303.35638889 356.80667845 -308 361 C-313.28329972 365.77097975 -318.57784411 370.52361592 -323.94921875 375.1953125 C-326.26088797 377.22958141 -328.5353143 379.3022231 -330.8125 381.375 C-335.21623889 385.35257061 -339.76578422 389.11488306 -344.37109375 392.85546875 C-346.82967099 394.86105405 -349.27219776 396.88002031 -351.6875 398.9375 C-352.65236328 399.75541016 -352.65236328 399.75541016 -353.63671875 400.58984375 C-355.23168547 401.91275231 -355.23168547 401.91275231 -355 404 C-355.89187012 404.40859253 -355.89187012 404.40859253 -356.80175781 404.82543945 C-358.94440556 405.97029488 -360.42006637 407.12644698 -362.171875 408.79296875 C-362.74929443 409.33695313 -363.32671387 409.8809375 -363.92163086 410.44140625 C-364.52499268 411.01761719 -365.12835449 411.59382813 -365.75 412.1875 C-367.01620197 413.37967686 -368.28312251 414.57109101 -369.55078125 415.76171875 C-370.1535791 416.32938965 -370.75637695 416.89706055 -371.37744141 417.48193359 C-375.00939534 420.87999101 -378.78870282 424.10420791 -382.56396484 427.34082031 C-390.25179572 433.93891982 -397.82406806 440.62454186 -405.22338867 447.54541016 C-409.40611834 451.45707559 -413.65427049 455.26966225 -418 459 C-425.97166419 465.84587601 -433.87750976 472.73543971 -441.5703125 479.89453125 C-445.00800021 483.09277803 -448.49257401 486.22094299 -452.04296875 489.29296875 C-454.3855915 491.33633431 -456.69273422 493.41680859 -459 495.5 C-462.60995573 498.75776493 -466.2488779 501.97713007 -469.91796875 505.16796875 C-473.24875365 508.0988095 -476.5228716 511.09228948 -479.80078125 514.08203125 C-482 516 -482 516 -485 518 C-484.67 518.66 -484.34 519.32 -484 520 C-480.231434 518.52667162 -476.46357018 517.05156199 -472.69628906 515.57495117 C-471.42042915 515.07513801 -470.14439358 514.57577295 -468.86816406 514.0769043 C-461.5165181 511.20281593 -454.19581001 508.27174009 -446.91699219 505.21704102 C-441.88126272 503.1160106 -436.81630083 501.08846495 -431.75 499.0625 C-430.66243408 498.62719971 -429.57486816 498.19189941 -428.4543457 497.7434082 C-421.26906956 494.87792455 -414.05999011 492.10013448 -406.79296875 489.44921875 C-402.62452222 487.89237759 -398.53686272 486.14579 -394.43383789 484.42553711 C-387.85808489 481.69565288 -381.23817655 479.07510076 -374.625 476.4375 C-373.06791561 475.81568474 -371.51086876 475.1937755 -369.95385742 474.57177734 C-366.79833198 473.31129786 -363.64264291 472.05122943 -360.48681641 470.79150391 C-354.09402366 468.23938662 -347.70329727 465.68210963 -341.3125 463.125 C-338.88412598 462.15361734 -336.45574022 461.18226403 -334.02734375 460.2109375 C-332.74723236 459.69889501 -331.46712171 459.18685068 -330.18701172 458.67480469 C-320.27612305 454.71044922 -310.36523438 450.74609375 -300.4543457 446.78173828 C-299.65874741 446.46348083 -298.86314911 446.14522339 -298.04344177 445.81732178 C-296.44727036 445.17888982 -294.85104845 444.54058407 -293.254776 443.90240479 C-289.13495669 442.25513718 -285.01614383 440.60541968 -280.89892578 438.95166016 C-270.03377641 434.59052321 -259.1383546 430.31966701 -248.20214844 426.14013672 C-240.06611959 423.02784822 -232.02125208 419.75800161 -224.02832031 416.29492188 C-220.65246455 414.85139245 -217.26686487 413.55475069 -213.8125 412.3125 C-206.59857523 409.66467201 -199.48584393 406.78705015 -192.375 403.875 C-182.36759529 399.7783602 -172.35085888 395.70766189 -162.3125 391.6875 C-161.67345734 391.43142975 -161.03441467 391.1753595 -160.37600708 390.91152954 C-153.21765513 388.04583618 -146.04921299 385.22437205 -138.8125 382.5625 C-134.7270594 381.0566485 -130.75150863 379.47900869 -126.8125 377.625 C-121.82361792 375.2818938 -116.72265718 373.34075258 -111.56640625 371.40625 C-100.02631934 367.0425901 -88.57266759 362.47457841 -77.125 357.875 C-75.17975427 357.09488557 -73.23444189 356.3149373 -71.2890625 355.53515625 C-67.55328648 354.03747449 -63.81785735 352.5389334 -60.08276367 351.03955078 C-53.3909394 348.35361699 -46.69565203 345.6763753 -40 343 C-38.4049268 342.36203197 -36.80987188 341.72401822 -35.21484375 341.0859375 C-32.96621414 340.1864338 -30.71753551 339.28705336 -28.46875 338.38793945 C-23.32312711 336.33035145 -18.17866776 334.26989205 -13.03515625 332.20703125 C-10.52354587 331.20025026 -8.01178648 330.19384154 -5.5 329.1875 C-4.86963837 328.93483368 -4.23927673 328.68216736 -3.58981323 328.42184448 C3.57541935 325.55089026 10.74745955 322.69893493 17.9375 319.890625 C18.57764038 319.64037064 19.21778076 319.39011627 19.87731934 319.13227844 C22.93034827 317.93924079 25.98465741 316.74967186 29.04101562 315.56518555 C30.13091797 315.14019775 31.22082031 314.71520996 32.34375 314.27734375 C33.29443359 313.90859131 34.24511719 313.53983887 35.22460938 313.15991211 C38.2253003 311.9058408 41.1070762 310.48409126 44 309 C41.82920028 306.82920028 40.03525602 305.94541072 37.265625 304.64453125 C36.3058374 304.19045898 35.3460498 303.73638672 34.35717773 303.26855469 C33.33180908 302.78805664 32.30644043 302.30755859 31.25 301.8125 C29.14149368 300.81471743 27.033419 299.81602221 24.92578125 298.81640625 C23.90307129 298.33187988 22.88036133 297.84735352 21.82666016 297.34814453 C16.17415694 294.65224517 10.58732063 291.82814995 5 289 C-3.55238515 284.67302129 -12.15457909 280.48964758 -20.82641602 276.40893555 C-26.62259057 273.67357742 -32.3607314 270.83842276 -38.08154297 267.94946289 C-42.85060248 265.55065807 -47.66214942 263.25649093 -52.5 261 C-60.07364541 257.46471172 -67.55513187 253.76635197 -75.01611328 250 C-78.33974941 248.32468452 -81.67013984 246.66290067 -85 245 C-88.96820018 243.01831366 -92.93508354 241.03428429 -96.89453125 239.03515625 C-104.05295023 235.42731309 -111.24699428 231.91412364 -118.5 228.5 C-126.40982855 224.77669773 -134.24459477 220.9240033 -142.04833984 216.98388672 C-145.36116158 215.31380021 -148.68088692 213.6575381 -152 212 C-155.96819995 210.01831319 -159.93508354 208.03428429 -163.89453125 206.03515625 C-172.13509527 201.88247966 -180.42903224 197.86560205 -188.79418945 193.96899414 C-189.55948975 193.6105542 -190.32479004 193.25211426 -191.11328125 192.8828125 C-191.79173096 192.56715332 -192.47018066 192.25149414 -193.16918945 191.92626953 C-195 191 -195 191 -198 189 C-198.99 189 -199.98 189 -201 189 C-200.195625 188.236875 -199.39125 187.47375 -198.5625 186.6875 C-195.83200976 184.20569102 -195.83200976 184.20569102 -195 181 C-194.16662109 180.58427734 -194.16662109 180.58427734 -193.31640625 180.16015625 C-190.00757532 178.50295088 -187.5854467 175.97255127 -184.9375 173.4375 C-180.96360752 169.69491286 -176.96623805 166.08455869 -172.6875 162.6875 C-167.87313736 158.83037905 -163.40657799 154.68237155 -158.9375 150.4375 C-153.97863339 145.72764308 -148.98009182 141.272005 -143.5625 137.08984375 C-138.91656931 133.30086064 -134.61314561 129.13073856 -130.2421875 125.03125 C-125.56063322 120.64079065 -120.71526979 116.45941642 -115.828125 112.30078125 C-114.63516386 111.28415075 -113.44246344 110.26721424 -112.25 109.25 C-111.6528418 108.74098145 -111.05568359 108.23196289 -110.44042969 107.70751953 C-105.284071 103.29035912 -100.28844579 98.71741124 -95.328125 94.08203125 C-93 92 -93 92 -91 91 C-91 90.34 -91 89.68 -91 89 C-90.443125 88.7525 -89.88625 88.505 -89.3125 88.25 C-86.57589087 86.77075182 -84.32349131 85.06532561 -82 83 C-82 82.34 -82 81.68 -82 81 C-81.44828125 80.76667969 -80.8965625 80.53335938 -80.328125 80.29296875 C-77.38744733 78.65980716 -75.20922749 76.60660793 -72.75 74.3125 C-69.51184489 71.31520384 -66.27071448 68.32945391 -62.9375 65.4375 C-60.02831395 62.91110159 -57.16456924 60.34070598 -54.3125 57.75 C-50.50494191 54.30922503 -46.62245793 50.97984799 -42.6875 47.6875 C-37.44445497 43.29762933 -32.38309728 38.74309703 -27.40112305 34.05932617 C-24.37298237 31.2210801 -21.27651228 28.54772922 -18 26 C-18.33 25.34 -18.66 24.68 -19 24 Z " fill="rgba(131, 131, 131, 0.1)" transform="translate(675,152)"/>
<path d="M0 0 C6.17162506 6.03136086 7.31224179 15.4675273 9.0390625 23.64453125 C9.69172087 26.65386721 9.69172087 26.65386721 10.65234375 29.375 C12.23375222 34.14736434 13.43817483 39.00672281 14.6875 43.875 C15.45036339 46.83475388 16.21509784 49.79394282 16.98657227 52.75146484 C17.49260773 54.69760572 17.99059508 56.64585832 18.48022461 58.59619141 C19.95101557 64.29163653 21.73067577 69.46494514 24.4375 74.6875 C24.78272705 75.36466064 25.1279541 76.04182129 25.48364258 76.73950195 C29.80406667 84.99416152 35.064018 92.21045494 41.75 98.6875 C41.75 99.3475 41.75 100.0075 41.75 100.6875 C42.3171875 100.94015625 42.884375 101.1928125 43.46875 101.453125 C46.0478021 102.84863949 48.02732114 104.52599618 50.25 106.4375 C65.19536127 118.41529314 86.0496596 124.43954355 104.44799805 128.92797852 C109.91068195 130.36597585 113.76387389 132.97914621 117.125 137.5625 C118.47082613 142.13830885 118.27901503 145.56334306 116.25 149.875 C110.56929068 156.26579799 101.6139603 158.1818514 93.6875 160.625 C91.45046642 161.33185908 89.21348702 162.03888962 86.9765625 162.74609375 C83.41441362 163.8620056 79.84873733 164.96223075 76.2734375 166.03515625 C55.47695023 172.49301282 36.86876443 186.67471726 26.13671875 205.93359375 C17.98826099 222.11574227 14.26199922 239.92140881 9.80712891 257.38330078 C8.93029426 260.80197071 8.02980826 264.21364559 7.125 267.625 C6.87242432 268.64190918 6.61984863 269.65881836 6.35961914 270.70654297 C4.70070796 276.88885319 2.58209752 281.37427974 -2.25 285.6875 C-5.44342379 287.28421189 -8.77545631 287.06168163 -12.25 286.6875 C-16.67024983 284.72294452 -19.3327119 282.03854584 -21.09814453 277.51367188 C-21.31583496 276.73572266 -21.53352539 275.95777344 -21.7578125 275.15625 C-22.00563477 274.27582031 -22.25345703 273.39539063 -22.50878906 272.48828125 C-23.76704278 267.73377313 -24.95973954 262.96557333 -26.125 258.1875 C-34.43792462 224.54836776 -42.74982972 193.69522571 -73.328125 173.671875 C-86.88105358 165.81241414 -102.25004229 161.74698045 -117.1484375 157.18359375 C-117.83744141 156.96727295 -118.52644531 156.75095215 -119.23632812 156.52807617 C-120.96286139 155.98819976 -122.69599359 155.46954446 -124.4296875 154.953125 C-129.11911745 152.84872707 -131.68212787 149.96521228 -133.75 145.3125 C-134.48967412 139.94986263 -132.70266734 136.77934097 -129.6875 132.4375 C-126.63727138 130.24759227 -123.6896942 129.43393672 -120.078125 128.49609375 C-117.79367105 127.84294186 -115.65723725 127.10222401 -113.4453125 126.25 C-109.31494566 124.67197062 -105.12878141 123.4457836 -100.875 122.25 C-82.81837781 117.00041672 -67.4437857 109.24553131 -54.25 95.6875 C-53.57453125 95.00945312 -52.8990625 94.33140625 -52.203125 93.6328125 C-35.94711467 76.29786343 -31.51303865 50.65477569 -25.67456055 28.49023438 C-19.10570411 3.57927808 -19.10570411 3.57927808 -13.5 -0.625 C-8.57373303 -2.13024824 -4.67779968 -1.88911141 0 0 Z M-8.25 58.6875 C-8.63671875 59.88246094 -9.0234375 61.07742187 -9.421875 62.30859375 C-14.70553316 78.49298646 -14.70553316 78.49298646 -18.25 85.6875 C-18.54261719 86.33332031 -18.83523438 86.97914063 -19.13671875 87.64453125 C-23.24419213 96.43140468 -29.12943341 103.84401368 -35.74609375 110.875 C-37.46285052 112.55149573 -37.46285052 112.55149573 -37.25 114.6875 C-37.83007812 114.94402344 -38.41015625 115.20054687 -39.0078125 115.46484375 C-41.45722028 116.80049643 -43.11753726 118.31674308 -45.125 120.25 C-55.90870886 130.03554738 -68.76385172 136.49201664 -82.25 141.6875 C-80.92372642 144.34004717 -79.89102993 144.33571715 -77.125 145.3125 C-65.68506892 149.73768824 -55.48275224 155.58887477 -46.25 163.6875 C-45.13238281 164.59048828 -45.13238281 164.59048828 -43.9921875 165.51171875 C-25.61373124 180.78440801 -15.45592468 203.14230504 -9.25 225.6875 C-5.90605837 223.03342599 -5.2429042 220.00996516 -4.0625 216 C-1.37272937 207.40200179 2.43817331 199.57883411 6.75 191.6875 C7.53117187 190.23923828 7.53117187 190.23923828 8.328125 188.76171875 C11.79021592 182.86042741 16.06806612 177.88478277 20.6875 172.875 C21.26064941 172.25230225 21.83379883 171.62960449 22.42431641 170.98803711 C26.51766583 166.67666102 30.89078767 163.10249582 35.75 159.6875 C36.58519165 159.09449097 36.58519165 159.09449097 37.43725586 158.48950195 C46.38227521 152.25717035 55.66590334 147.76042735 65.75 143.6875 C63.15190505 140.54965998 60.25570405 139.56125669 56.5 138.125 C37.66038035 130.41407191 22.05805694 116.45545568 10.75 99.6875 C10.27304687 98.99269531 9.79609375 98.29789063 9.3046875 97.58203125 C8.0397469 95.65279795 6.87957703 93.69897273 5.75 91.6875 C5.26917969 90.8315625 4.78835938 89.975625 4.29296875 89.09375 C0.54212687 82.02887315 -1.94020826 74.89660056 -4.171875 67.25390625 C-5.06155246 64.31087899 -6.05144598 61.51499789 -7.25 58.6875 C-7.58 58.6875 -7.91 58.6875 -8.25 58.6875 Z " fill="rgba(131, 131, 131, 0.1)" transform="translate(754.25,137.3125)"/>
</svg>
